<?xml version="1.0" encoding="UTF-8" standalone="no"?>
<svg
   xmlns:dc="http://purl.org/dc/elements/1.1/"
   xmlns:cc="http://creativecommons.org/ns#"
   xmlns:rdf="http://www.w3.org/1999/02/22-rdf-syntax-ns#"
   xmlns:svg="http://www.w3.org/2000/svg"
   xmlns="http://www.w3.org/2000/svg"
   version="1.1"
   id="svg2"
   viewBox="0 0 173.61184 189.536"
   height="53.491272mm"
   width="48.99712mm">
  <defs
     id="defs4" />
  <metadata
     id="metadata7">
    <rdf:RDF>
      <cc:Work
         rdf:about="">
        <dc:format>image/svg+xml</dc:format>
        <dc:type
           rdf:resource="http://purl.org/dc/dcmitype/StillImage" />
        <dc:title></dc:title>
      </cc:Work>
    </rdf:RDF>
  </metadata>
  <g
     transform="translate(-691.32239,-355.88601)"
     id="layer1">
    <g
       transform="translate(-1.210083,4.7148743)"
       id="g4580">
      <path
         style="fill:#00ddff;fill-opacity:1;stroke:#000000;stroke-width:5;stroke-linecap:round;stroke-miterlimit:4;stroke-dasharray:none;stroke-dashoffset:0;stroke-opacity:1"
         id="path4138-36-0"
         d="m 840.14619,445.97665 -19.36051,33.53339 -38.72102,0 -19.36051,-33.53339 19.36051,-33.53338 38.72102,0 z" />
      <path
         style="fill:#000000;fill-opacity:1;stroke:#000000;stroke-width:5;stroke-linecap:round;stroke-miterlimit:4;stroke-dasharray:none;stroke-dashoffset:0;stroke-opacity:1"
         d="m 772.94019,428.27338 -4.86328,8.42383 66.73437,0 -4.86523,-8.42383 -57.00586,0 z"
         id="path4138-36-6" />
      <path
         style="fill:#000000;fill-opacity:1;stroke:#000000;stroke-width:5;stroke-linecap:round;stroke-miterlimit:4;stroke-dasharray:none;stroke-dashoffset:0;stroke-opacity:1"
         d="m 768.08659,455.1148 4.86328,8.42578 57.00781,0 4.86328,-8.42578 -66.73437,0 z"
         id="path4138-36-7" />
    </g>
    <g
       transform="matrix(0.5,0,0,0.5,365.03996,222.31239)"
       id="g4585">
      <path
         style="fill:#000000;fill-opacity:1;stroke:#ffffff;stroke-width:1;stroke-linecap:round;stroke-miterlimit:4;stroke-dasharray:none;stroke-dashoffset:0;stroke-opacity:1"
         d="m 710.87159,425.89354 -17.86133,30.9375 17.71875,30.68945 17.86328,-30.9375 -17.7207,-30.68945 z"
         id="path4138-36-0-3-9" />
      <path
         style="fill:#ff9100;fill-opacity:1;stroke:#ffffff;stroke-width:1;stroke-linecap:round;stroke-miterlimit:4;stroke-dasharray:none;stroke-dashoffset:0;stroke-opacity:1"
         d="m 706.87266,423.36638 -35.72332,3.9e-4 -17.71847,30.68962 35.7243,10e-4 17.71749,-30.69132 z"
         id="path4138-36-0-3-2-31" />
      <path
         style="fill:#ff9100;fill-opacity:1;stroke:#ffffff;stroke-width:1;stroke-linecap:round;stroke-miterlimit:4;stroke-dasharray:none;stroke-dashoffset:0;stroke-opacity:1"
         d="m 706.88042,489.72793 -35.72332,-3.9e-4 -17.71847,-30.68962 35.7243,-10e-4 17.71749,30.69131 z"
         id="path4138-36-0-3-2-3-9" />
    </g>
    <g
       transform="translate(-7.4527987,-2.0631925)"
       id="g4637">
      <path
         style="fill:#000000;fill-opacity:1;stroke:#ffffff;stroke-width:0.5;stroke-linecap:round;stroke-miterlimit:4;stroke-dasharray:none;stroke-dashoffset:0;stroke-opacity:1"
         d="m 834.5288,529.40327 17.86167,-1.9e-4 8.85923,-15.34481 -17.86215,-6.5e-4 -8.85875,15.34565 z"
         id="path4138-36-0-3-9-1" />
      <path
         style="fill:#008b33;fill-opacity:1;stroke:#ffffff;stroke-width:0.5;stroke-linecap:round;stroke-miterlimit:4;stroke-dasharray:none;stroke-dashoffset:0;stroke-opacity:1"
         d="m 834.43424,531.76665 8.931,15.46855 17.71862,-8e-5 -8.93065,-15.46933 -17.7191,9.3e-4 z"
         id="path4138-36-0-3-2-31-0" />
      <path
         style="fill:#008b33;fill-opacity:1;stroke:#ffffff;stroke-width:0.5;stroke-linecap:round;stroke-miterlimit:4;stroke-dasharray:none;stroke-dashoffset:0;stroke-opacity:1"
         d="m 863.1677,515.1729 8.93066,15.46875 -8.85938,15.34472 -8.93151,-15.46882 8.86036,-15.34473 z"
         id="path4138-36-0-3-2-3-9-6" />
    </g>
    <g
       transform="translate(-13.591404,9.1799578)"
       id="g4629">
      <path
         style="fill:#000000;fill-opacity:1;stroke:#ffffff;stroke-width:0.5;stroke-linecap:round;stroke-miterlimit:4;stroke-dasharray:none;stroke-dashoffset:0;stroke-opacity:1"
         d="m 866.80809,380.11143 -8.931,-15.46856 -17.71861,9e-5 8.93051,15.4694 17.7191,-9.3e-4 z"
         id="path4138-36-0-3-9-2" />
      <path
         style="fill:#9400ff;fill-opacity:1;stroke:#ffffff;stroke-width:0.5;stroke-linecap:round;stroke-miterlimit:4;stroke-dasharray:none;stroke-dashoffset:0;stroke-opacity:1"
         d="m 868.90212,379.01163 8.93066,-15.46874 -8.85938,-15.34473 -8.93151,15.46882 8.86036,15.34473 z"
         id="path4138-36-0-3-2-31-06" />
      <path
         style="fill:#9400ff;fill-opacity:1;stroke:#ffffff;stroke-width:0.5;stroke-linecap:round;stroke-miterlimit:4;stroke-dasharray:none;stroke-dashoffset:0;stroke-opacity:1"
         d="m 840.16478,362.42461 8.931,-15.46856 17.71861,9e-5 -8.93064,15.46932 -17.7191,-9.3e-4 z"
         id="path4138-36-0-3-2-3-9-1" />
    </g>
    <path
       id="path4648"
       d="m 819.64711,416.61758 17.09484,-29.60911"
       style="fill:none;fill-rule:evenodd;stroke:#000000;stroke-width:5;stroke-linecap:butt;stroke-linejoin:miter;stroke-miterlimit:4;stroke-dasharray:none;stroke-opacity:1" />
    <path
       id="path4650"
       d="m 760.72413,450.61509 -35.479,0"
       style="fill:none;fill-rule:evenodd;stroke:#000000;stroke-width:5;stroke-linecap:butt;stroke-linejoin:miter;stroke-miterlimit:4;stroke-dasharray:none;stroke-opacity:1" />
    <path
       id="path4652"
       d="m 819.39538,483.37611 c 0,1.39787 17.9468,31.0848 17.9468,31.0848"
       style="fill:none;fill-rule:evenodd;stroke:#000000;stroke-width:5;stroke-linecap:butt;stroke-linejoin:miter;stroke-miterlimit:4;stroke-dasharray:none;stroke-opacity:1" />
  </g>
</svg>
